# xmcd CD database file
#
# Track frame offsets:
#	150
#	11195
#	31372
#
# Disc length: 684 seconds
#
# Revision: 0
# Processed by: cddbd v1.5.1PL2 Copyright (c) Steve Scherf et al.
# Submitted via: CDex 1.51
#
DISCID=1d02aa03
DTITLE=眼鏡's - Go！Go！眼鏡's
DYEAR=2006
DGENRE=Anime
TTITLE0=眼鏡トーク3
TTITLE1=Go！Go！眼鏡's
TTITLE2=Go！Go！眼鏡's（オリジナル・カラオケ）
EXTD=YEAR: 2006
EXTT0=
EXTT1=
EXTT2=
PLAYORDER=
